<svg width="28" height="28" viewBox="0 0 28 28" fill="none" xmlns="http://www.w3.org/2000/svg">
<path id="Union" fill-rule="evenodd" clip-rule="evenodd" d="M5.13349 5.30568L5.6335 6.01518C1.51396 10.3278 1.3735 17.0429 5.21213 21.5194L3.62338 23.3986C-1.36192 17.9036 -1.20288 9.40389 4.1005 4.10051C9.41073 -1.20972 17.9255 -1.36232 23.4199 3.6427L21.5412 5.23093C17.004 1.32064 10.1515 1.51163 5.84045 5.8039L5.13349 5.30568ZM4.86496 24.6098L6.75263 23.014C11.2214 26.616 17.7469 26.4038 21.9734 22.3774L22.5252 22.7663L22.1383 22.2172L22.1778 22.1778C26.4029 17.9528 26.6755 11.2721 22.9958 6.7301L24.591 4.84317C29.3562 10.3432 29.1257 18.6733 23.8995 23.8995C18.6802 29.1188 10.3651 29.3556 4.86496 24.6098ZM20.9796 20.9313L14.5711 16.4151C15.0266 16.3345 15.4628 16.1183 15.8147 15.7664C16.1666 15.4145 16.3828 14.9784 16.4634 14.5229L20.9796 20.9313ZM12.5091 15.7664C12.1165 15.3737 11.8927 14.8761 11.8379 14.3639L0.498791 27.7766L13.9114 16.4376C13.3993 16.3827 12.9017 16.159 12.5091 15.7664ZM12.5091 12.4608C12.9026 12.0674 13.4014 11.8435 13.9148 11.7892L7.06627 6.96287L11.8522 13.754C11.9255 13.2806 12.1445 12.8255 12.5091 12.4608ZM15.8147 12.4608C16.2073 12.8534 16.4311 13.351 16.4859 13.8632L27.8249 0.450563L14.4122 11.7896C14.9245 11.8444 15.4221 12.0682 15.8147 12.4608Z" fill="currentColor"/>
</svg>